<svg xmlns="http://www.w3.org/2000/svg" width="700" height="100" fill-rule="evenodd" xmlns:v="https://vecta.io/nano"><path d="M403 1.333C403 2.714 410.198 9 411.781 9c.494 0 2.337 1.582 4.096 3.515s5.742 5.196 8.85 7.25 6.803 4.779 8.212 6.055c3.316 3.003 12.058 10.097 16.551 13.43 6.552 4.86 18.554 15.318 20.317 17.703 1.239 1.676 2.884 3.047 3.656 3.047s1.693.917 2.049 2.038 2.298 3.119 4.317 4.44 7.041 5.58 11.159 9.463C500.159 84.587 500 84.586 500 76c0-3.85-.371-7-.824-7s-3.634-2.724-7.069-6.054-10.151-9.242-14.926-13.138-9.588-8.035-10.696-9.197c-5.271-5.525-31.28-25.24-45.721-34.659C411.423-.139 403-2.33 403 1.333m44.5.528c1.65 1.019 3.857 2.817 4.905 3.996S454.911 8 455.647 8s1.898.9 2.585 2 1.986 2 2.886 2 2.238.724 2.972 1.608 5.402 4.714 10.372 8.509c13.297 10.153 17.781 13.927 21.84 18.383 3.644 4 3.644 4 3.671-.547.032-5.337-1.274-6.784-17.62-19.537C459.742 2.776 455.291 0 449.632.004 444.5.007 444.5.007 447.5 1.861m32.829 1.233C482.898 4.796 485 6.552 485 6.997s2.397 2.399 5.326 4.344 5.91 4.238 6.623 5.097c2.254 2.717 3.051 1.721 3.051-3.816C500 4.882 493.258 0 482.57 0c-6.913 0-6.913 0-2.241 3.094M600 6.035c0 6.818 5.639 13.502 20 23.706 26.503 18.831 26.778 19.817 10.25 36.812-7.562 7.777-15.775 16.5-18.25 19.385s-6.187 7.079-8.25 9.32-3.75 4.225-3.75 4.408c0 4.867 19.52-.626 25.568-7.195 25.391-27.578 28.186-29.636 32.898-24.221 7.26 8.341 27.962 28.751 29.732 29.313.991.314 1.802.991 1.802 1.504s2.25.933 5 .933c7.088 0 7.647-8.539.967-14.75-33.451-31.1-34.766-33.715-22.293-44.331 4.149-3.53 8.471-7.722 9.606-9.314 2.947-4.137 10.734-11.964 14.01-14.083 3.764-2.434 3.864-16.786.12-17.321-3.176-.453-12.871 7.781-27.529 23.383C653.857 40.641 654.689 40.3 646.899 33c-6.702-6.28-15.314-13.033-24.899-19.524-4.675-3.166-10.476-7.493-12.891-9.616C602.338-2.093 600-1.535 600 6.035m-42.061 5.553c-2.683 3.9-3.36 5.919-3.551 10.588-.317 7.76-.393 7.824-9.273 7.824-11.175 0-14.451 4.356-13.621 18.117.399 6.616.399 6.616-9.007 7.108-17.287.904-19.584 4.949-17.19 30.275.834 8.822 2.733 10.47 9.671 8.392 5.878-1.762 6.628-3.043 5.151-8.804-2.434-9.497-.67-15.088 4.76-15.089 4.58-.001 17.095-2.132 20.271-3.451 1.873-.778 3.192-16.61 1.648-19.773-.943-1.933 1.335-2.799 6.702-2.548 14.7.688 16.583-1.598 17.487-21.227.012-.275 3.855-.567 8.539-.649 18.117-.317 17.57-12.791-.612-13.96-4.077-.262-9.719-.734-12.537-1.049-5.123-.572-5.123-.572-8.438 4.246m-309.581-1.011c-.929 1.417-1.84 3.78-2.024 5.25l-1.244 10.319c-.5 4.205-1.399 8.563-1.999 9.684s-1.111 4.431-1.135 7.354-.493 7.341-1.042 9.816a118.49 118.49 0 0 0-1.584 9.25c-.701 5.7-2.009 6.158-2.852 1-1.491-9.135-8.783-23.25-12.011-23.25-2.997 0-3.75 2.491-6.952 23-1.065 6.825-1.783 9.479-3.11 11.505-.798 1.217-1.195 2.88-.882 3.694s-.127 2.058-.977 2.763c-4.499 3.734.416 9.95 8.333 10.54 2.818.209 5.465.593 5.883.851s12.987.608 27.931.775c30.252.34 32.146-.034 30.816-6.087-.483-2.199-.101-2.756 2.582-3.769 3.644-1.376 3.619-6.234-.095-19.272-1.019-3.575-2.672-10.922-3.674-16.327-3.098-16.71-10.723-19.288-13.824-4.673-.408 1.925-1.587 5.17-2.62 7.21s-1.896 5.191-1.917 7c-.094 7.867-4.38-7.509-7.445-26.71-2.47-15.471-3.218-18.514-5.049-20.536-2.326-2.571-3.083-2.48-5.109.613m-105.06 4.673c-1.127 1.238-2.801 3.873-3.72 5.858s-3.897 6.37-6.618 9.747-5.804 8.053-6.853 10.392L120.906 53c-1.813 4.125-4.111 8.699-5.107 10.164-3.406 5.007-9.799 18.278-9.784 20.308.065 8.538 11.503 5.492 15.602-4.154.744-1.75 1.856-3.493 2.472-3.873s1.871-2.324 2.79-4.318 2.935-5.591 4.481-7.991 3.422-6.102 4.171-8.225 2.511-5.551 3.916-7.618S142 43.136 142 42.648c0-9.456 6.869-9.953 11.522-.833 2.302 4.512 4.926 9.022 5.831 10.023S161 54.242 161 54.957c0 1.171 1.319 3.567 8.726 15.851 1.225 2.031 2.718 4.817 3.319 6.192 4.046 9.261 6.135 11.182 11.69 10.747 9.979-.78 10.695-3.406 3.569-13.107-2.367-3.223-4.304-6.381-4.304-7.018s-1.061-2.725-2.359-4.64-2.704-4.607-3.126-5.982-2.286-4.585-4.142-7.134S171 44.737 171 44.132c0-1.039-3.759-9.028-7.354-15.632-.899-1.65-1.636-3.497-1.64-4.105-.034-6.085-14.882-13.344-18.708-9.145m207.3.642c-1.032 1.14-2.496 1.686-3.688 1.374-3.222-.842-5.72 2.369-6.462 8.305-.896 7.169-1.937 7.841-11.774 7.602-11.157-.272-16.851 1.163-18.991 4.787-3.849 6.515-2.202 8.691 12.496 16.512 6.297 3.351 6.924 6.678 2.767 14.701-5.795 11.186-4.02 18.773 4.402 18.813 2.77.014 12.536-8.842 12.666-11.486.027-.55.667-1.815 1.423-2.811 1.597-2.107.765-2.701 14.058 10.048 8.407 8.064 12.905 9.666 17.181 6.117 1.527-1.267 1.571-17.028.055-19.481-4.003-6.476-2.703-16.034 2.367-17.399 2.207-.595 4.763-1.957 5.68-3.028S385.026 48 385.737 48c1.363 0 5.253-5.675 5.259-7.673.018-5.446-5.185-7.621-16.662-6.965-12.467.712-12.007 1.068-13.86-10.724-1.07-6.809-6.476-10.503-9.876-6.746M400 20.845c0 4.549 1.961 8.155 4.435 8.155.427 0 1.662 1.125 2.744 2.5s2.499 2.5 3.151 2.5 4.106 2.5 7.677 5.556l10.824 9.25 6.672 5.694 6.017 5c2.022 1.65 4.869 4.146 6.328 5.546s8.952 7.822 16.652 14.271l22.951 19.433c.773.687 3.913 1.25 6.978 1.25 8.92 0 8.914-.008-13.929-19.482l-15.392-13.345c-3.515-3.12-9.174-7.923-12.576-10.673L429.961 38c-4.365-4.067-28.382-22-29.464-22-.273 0-.497 2.18-.497 4.845M12.5 25.434C6.38 27.609 2.388 33.591 4.281 37.75 5.666 40.791 12 40.073 12 36.875c0-6.137 13.233-6.311 16.515-.217 2.095 3.89 3.51 4.838 10.289 6.895 9.176 2.785 17.658 1.321 20.531-3.543 3.48-5.891 8.725-7.284 12.784-3.396 3.162 3.03 10.32 4.292 13.795 2.432 2.55-1.365 2.616-6.454.086-6.681l-2.655-.25c-.636-.063-3.104-1.742-5.484-3.731-7.063-5.901-17.318-4.825-23.797 2.498-5.869 6.633-11.206 7.272-15.806 1.893-7.159-8.371-7.774-8.708-15.572-8.552-3.952.08-8.536.625-10.186 1.211M400 52.784c0 6.215 4.954 12.025 15.75 18.473 1.788 1.067 3.25 2.287 3.25 2.711s2.666 2.442 5.925 4.485 6.17 4.352 6.469 5.131S432.417 85 433.003 85s4.539 2.859 8.782 6.353c10.161 8.368 10.799 8.647 19.778 8.647 7.695 0 7.695 0-.184-6.224l-32.251-26.12c-.755-.911-1.923-1.656-2.595-1.656s-2.024-.885-3.002-1.966c-1.503-1.66-18.359-14.074-22.281-16.408-.943-.561-1.25.706-1.25 5.158M20 57.039C9.831 58.505 2.799 65.448 4.17 72.671c.421 2.22 5.167 3.023 6.722 1.136l3.682-4.557c3.277-4.09 7.079-4.323 10.502-.644 8.964 9.638 26.371 12.706 32.605 5.747 7.052-7.872 16.217-10.177 20.882-5.252 4.075 4.301 6.573 5.063 12.461 3.8 7.001-1.501 6.834-5.644-.3-7.434-1.521-.382-4.039-2.239-5.595-4.127-6.241-7.571-20.598-5.87-31.162 3.69-6.89 6.235-13.879 5.278-21.485-2.941-4.282-4.626-7.207-5.81-12.482-5.05M400 76c0 3.3.35 6 .777 6 1.175 0 10.031 6.996 16.223 12.817 5.236 4.923 23.221 8.585 20.495 4.174-.491-.794-9.864-8.524-15.995-13.192l-10.781-8.28C399.013 68.52 400 68.66 400 76" fill="#0e0e0e"/><path d="M0 50c0 50 0 50 211.25 49.994S422.5 99.988 417 94.817C410.808 88.996 401.952 82 400.777 82c-.427 0-.777-2.7-.777-6 0-7.34-.987-7.48 10.719 1.519l10.781 8.28c6.131 4.668 15.504 12.398 15.995 13.192.342.555 4.084.995 8.314.979 6.233-.025 7.312-.245 5.691-1.158-1.1-.62-5.375-3.895-9.5-7.277s-8.288-6.447-9.25-6.811-1.75-1.066-1.75-1.562-2.7-2.593-6-4.662-6-4.077-6-4.463-2.138-2.125-4.75-3.866c-11.797-7.863-14.396-11.097-14.057-17.495.305-5.734 10.421-.911 22.862 10.899 1.405 1.334 3.037 2.425 3.627 2.425s1.691.745 2.446 1.656c1.237 1.494 7.645 6.683 32.251 26.12C468.974 99.775 488 103.509 488 99c0-.55-.408-1-.907-1s-2.637-1.568-4.75-3.485S472.2 85.757 464.5 79.312l-16.652-14.266c-1.459-1.4-4.306-3.896-6.328-5.546l-6.017-5-6.672-5.694-10.824-9.25C414.436 36.5 410.982 34 410.33 34s-2.07-1.125-3.151-2.5-2.395-2.5-2.918-2.5c-2.292 0-4.261-3.849-4.261-8.329 0-2.569.224-4.671.497-4.671 1.082 0 25.099 17.933 29.464 22 1.5 1.398 7.493 6.31 22.571 18.5 3.402 2.75 9.061 7.553 12.576 10.673L480.5 80.518C497.315 94.852 500 97.353 500 98.677c0 1.08 9.147 1.323 49.71 1.323 55.687 0 48.903 1.532 62.29-14.065 2.475-2.883 10.688-11.605 18.25-19.382 16.528-16.995 16.253-17.981-10.25-36.812-14.361-10.204-20-16.888-20-23.706C600 0 600 0 544.798 0s-55.202 0-50 3.642c5.169 3.618 5.202 3.675 5.202 9 0 5.518-.798 6.511-3.051 3.796-.713-.859-3.693-3.153-6.623-5.097S485 7.442 485 6.997C485 3.371 475.466 0 465.211 0c-10.446 0-10.446 0-1.726 6.25 28.784 20.629 36.523 27.777 36.488 33.703-.027 4.547-.027 4.547-3.671.547-4.059-4.456-8.543-8.23-21.84-18.383-4.97-3.795-9.638-7.624-10.372-8.509S462.018 12 461.118 12s-2.199-.9-2.886-2-1.842-2-2.566-2-2.408-1.168-3.742-2.595C447.299.454 445.277 0 427.868 0c-16.231 0-16.231 0-7.104 5.952 14.441 9.419 40.45 29.134 45.721 34.659 1.108 1.162 5.922 5.3 10.696 9.197s11.492 9.809 14.926 13.138S498.723 69 499.176 69s.824 3.15.824 7c0 8.586.159 8.587-9.012-.059-4.118-3.883-9.14-8.141-11.159-9.463s-3.961-3.32-4.317-4.44S474.234 60 473.463 60s-2.417-1.371-3.656-3.047c-1.763-2.385-13.765-12.843-20.317-17.703-4.493-3.333-13.235-10.427-16.551-13.43-1.409-1.276-5.104-4.001-8.212-6.055s-7.091-5.317-8.85-7.25S412.275 9 411.781 9C410.198 9 403 2.714 403 1.333 403 .227 368.697 0 201.5 0 0 0 0 0 0 50M608.583 3.458c2.155 1.902 7.742 6.062 12.417 9.243 9.644 6.564 19.406 14.215 25.899 20.299 7.79 7.3 6.958 7.641 22.982-9.416 8.535-9.085 14.726-15.057 20.042-19.334C695.205 0 695.205 0 649.936 0s-45.269 0-41.353 3.458m-50.644 8.13c-2.683 3.9-3.36 5.919-3.551 10.588-.317 7.76-.393 7.824-9.273 7.824-11.175 0-14.451 4.356-13.621 18.117.399 6.616.399 6.616-9.007 7.108-17.287.904-19.584 4.949-17.19 30.275.834 8.822 2.733 10.47 9.671 8.392 5.878-1.762 6.628-3.043 5.151-8.804-2.434-9.497-.67-15.088 4.76-15.089 4.58-.001 17.095-2.132 20.271-3.451 1.873-.778 3.192-16.61 1.648-19.773-.943-1.933 1.335-2.799 6.702-2.548 14.7.688 16.583-1.598 17.487-21.227.012-.275 3.855-.567 8.539-.649 18.117-.317 17.57-12.791-.612-13.96-4.077-.262-9.719-.734-12.537-1.049-5.123-.572-5.123-.572-8.438 4.246m-309.581-1.011c-.929 1.417-1.84 3.78-2.024 5.25l-1.244 10.319c-.5 4.205-1.399 8.563-1.999 9.684s-1.111 4.431-1.135 7.354-.493 7.341-1.042 9.816a118.49 118.49 0 0 0-1.584 9.25c-.701 5.7-2.009 6.158-2.852 1-1.491-9.135-8.783-23.25-12.011-23.25-2.997 0-3.75 2.491-6.952 23-1.065 6.825-1.783 9.479-3.11 11.505-.798 1.217-1.195 2.88-.882 3.694s-.127 2.058-.977 2.763c-4.499 3.734.416 9.95 8.333 10.54 2.818.209 5.465.593 5.883.851s12.987.608 27.931.775c30.252.34 32.146-.034 30.816-6.087-.483-2.199-.101-2.756 2.582-3.769 3.644-1.376 3.619-6.234-.095-19.272-1.019-3.575-2.672-10.922-3.674-16.327-3.098-16.71-10.723-19.288-13.824-4.673-.408 1.925-1.587 5.17-2.62 7.21s-1.896 5.191-1.917 7c-.094 7.867-4.38-7.509-7.445-26.71-2.47-15.471-3.218-18.514-5.049-20.536-2.326-2.571-3.083-2.48-5.109.613m-105.06 4.673c-1.127 1.238-2.801 3.873-3.72 5.858s-3.897 6.37-6.618 9.747-5.804 8.053-6.853 10.392L120.906 53c-1.813 4.125-4.111 8.699-5.107 10.164-3.406 5.007-9.799 18.278-9.784 20.308.065 8.538 11.503 5.492 15.602-4.154.744-1.75 1.856-3.493 2.472-3.873s1.871-2.324 2.79-4.318 2.935-5.591 4.481-7.991 3.422-6.102 4.171-8.225 2.511-5.551 3.916-7.618S142 43.136 142 42.648c0-9.456 6.869-9.953 11.522-.833 2.302 4.512 4.926 9.022 5.831 10.023S161 54.242 161 54.957c0 1.171 1.319 3.567 8.726 15.851 1.225 2.031 2.718 4.817 3.319 6.192 4.046 9.261 6.135 11.182 11.69 10.747 9.979-.78 10.695-3.406 3.569-13.107-2.367-3.223-4.304-6.381-4.304-7.018s-1.061-2.725-2.359-4.64-2.704-4.607-3.126-5.982-2.286-4.585-4.142-7.134S171 44.737 171 44.132c0-1.039-3.759-9.028-7.354-15.632-.899-1.65-1.636-3.497-1.64-4.105-.034-6.085-14.882-13.344-18.708-9.145m207.3.642c-1.032 1.14-2.496 1.686-3.688 1.374-3.222-.842-5.72 2.369-6.462 8.305-.896 7.169-1.937 7.841-11.774 7.602-11.157-.272-16.851 1.163-18.991 4.787-3.849 6.515-2.202 8.691 12.496 16.512 6.297 3.351 6.924 6.678 2.767 14.701-5.795 11.186-4.02 18.773 4.402 18.813 2.77.014 12.536-8.842 12.666-11.486.027-.55.667-1.815 1.423-2.811 1.597-2.107.765-2.701 14.058 10.048 8.407 8.064 12.905 9.666 17.181 6.117 1.527-1.267 1.571-17.028.055-19.481-4.003-6.476-2.703-16.034 2.367-17.399 2.207-.595 4.763-1.957 5.68-3.028S385.026 48 385.737 48c1.363 0 5.253-5.675 5.259-7.673.018-5.446-5.185-7.621-16.662-6.965-12.467.712-12.007 1.068-13.86-10.724-1.07-6.809-6.476-10.503-9.876-6.746m345.346 2.642c-3.621 2.664-9.904 9.198-12.934 13.451-.986 1.383-5.187 5.404-9.336 8.934-11.764 10.013-11.526 10.993 7.186 29.581C702.441 91.939 700 94.234 700 52.5l-.306-36.5c-.168 0-1.855 1.14-3.75 2.534M12.5 25.434C6.38 27.609 2.388 33.591 4.281 37.75 5.666 40.791 12 40.073 12 36.875c0-6.137 13.233-6.311 16.515-.217 2.095 3.89 3.51 4.838 10.289 6.895 9.176 2.785 17.658 1.321 20.531-3.543 3.48-5.891 8.725-7.284 12.784-3.396 3.162 3.03 10.32 4.292 13.795 2.432 2.55-1.365 2.616-6.454.086-6.681l-2.655-.25c-.636-.063-3.104-1.742-5.484-3.731-7.063-5.901-17.318-4.825-23.797 2.498-5.869 6.633-11.206 7.272-15.806 1.893-7.159-8.371-7.774-8.708-15.572-8.552-3.952.08-8.536.625-10.186 1.211M20 57.039C9.831 58.505 2.799 65.448 4.17 72.671c.421 2.22 5.167 3.023 6.722 1.136l3.682-4.557c3.277-4.09 7.079-4.323 10.502-.644 8.964 9.638 26.371 12.706 32.605 5.747 7.052-7.872 16.217-10.177 20.882-5.252 4.075 4.301 6.573 5.063 12.461 3.8 7.001-1.501 6.834-5.644-.3-7.434-1.521-.382-4.039-2.239-5.595-4.127-6.241-7.571-20.598-5.87-31.162 3.69-6.89 6.235-13.879 5.278-21.485-2.941-4.282-4.626-7.207-5.81-12.482-5.05m623 17.484c-5.775 5.759-11.625 11.771-13 13.36s-4.506 4.965-6.958 7.503C618.584 100 618.584 100 654.292 100c32.646 0 39.934-.524 33.906-2.437-1.77-.562-22.472-20.972-29.732-29.313-4.661-5.355-3.222-5.939-15.466 6.273" fill="#f6f6f6"/></svg>